<?xml version="1.0" encoding="iso-8859-1"?>
<!-- Generator: Adobe Illustrator 19.0.0, SVG Export Plug-In . SVG Version: 6.00 Build 0)  -->
<svg version="1.1" id="Capa_1" xmlns="http://www.w3.org/2000/svg" xmlns:xlink="http://www.w3.org/1999/xlink" x="0px" y="0px"
	 viewBox="0 0 512 512" style="enable-background:new 0 0 512 512;" xml:space="preserve">
<path style="fill:#55D0E5;" d="M378.841,46.713L256.002,57.579L133.169,46.713V5c0-2.761,2.239-5,5-5h235.672c2.761,0,5,2.239,5,5
	V46.713z"/>
<path style="fill:#38B9D6;" d="M378.746,46.713H133.258l-47.65,106.262c-0.298,0.665-0.452,1.385-0.452,2.114v70.946l8.349,121.733
	l-8.349,100.426V507c0,2.761,2.239,5,5,5h242.94h88.751c2.761,0,5-2.239,5-5V155.053c0-0.705-0.149-1.402-0.438-2.046
	L378.746,46.713z"/>
<path style="fill:#1C9AAF;" d="M375.093,46.713l-41.641,106.362c-0.235,0.6-0.356,1.239-0.356,1.883V512h88.751c2.761,0,5-2.239,5-5
	V155.053c0-0.705-0.149-1.402-0.438-2.046L378.746,46.713H375.093z"/>
<rect x="85.152" y="226.03" style="fill:#F2F2F2;" width="247.94" height="222.16"/>
<g>
	<path style="fill:#38B9D6;" d="M273.204,307.665H137.527c-4.28,0-7.75-3.47-7.75-7.75s3.47-7.75,7.75-7.75h135.678
		c4.28,0,7.75,3.47,7.75,7.75S277.484,307.665,273.204,307.665z"/>
	<path style="fill:#38B9D6;" d="M247.184,347.767H137.527c-4.28,0-7.75-3.47-7.75-7.75s3.47-7.75,7.75-7.75h109.657
		c4.28,0,7.75,3.47,7.75,7.75S251.464,347.767,247.184,347.767z"/>
	<path style="fill:#38B9D6;" d="M184.921,382.062h-47.394c-4.28,0-7.75-3.47-7.75-7.75s3.47-7.75,7.75-7.75h47.394
		c4.28,0,7.75,3.47,7.75,7.75S189.201,382.062,184.921,382.062z"/>
</g>
<g>
</g>
<g>
</g>
<g>
</g>
<g>
</g>
<g>
</g>
<g>
</g>
<g>
</g>
<g>
</g>
<g>
</g>
<g>
</g>
<g>
</g>
<g>
</g>
<g>
</g>
<g>
</g>
<g>
</g>
</svg>
